<svg width="264" height="264" viewBox="0 0 264 264" fill="none" xmlns="http://www.w3.org/2000/svg">
<path d="M116.212 12.0583C124.091 11.2914 126.255 -7.07957e-06 132.002 -7.07957e-06C137.75 -7.07957e-06 140.485 11.0365 147.792 12.0583C155.6 13.3565 160.613 3.00975 166.165 4.49642C171.718 5.98309 171.501 17.3538 178.296 20.2307C185.503 23.5061 193.024 14.8089 198 17.6837C202.978 20.5585 199.827 31.4836 205.645 36.0229C211.759 41.0527 221.275 34.5983 225.338 38.6621C229.402 42.7258 223.532 52.4641 227.977 58.3551C232.581 64.7945 243.442 61.0242 246.316 66.0005C249.191 70.979 241 78.8643 243.769 85.7043C246.55 93.1162 258.017 92.2851 259.504 97.8354C260.99 103.388 251.038 108.885 251.942 116.209C252.709 124.088 264 126.251 264 131.999C264 137.746 252.964 140.482 251.942 147.789C250.644 155.597 260.99 160.61 259.504 166.162C258.017 171.715 246.646 171.499 243.769 178.294C240.494 185.5 249.191 193.021 246.316 197.997C243.442 202.976 232.517 199.825 227.977 205.643C222.948 211.757 229.402 221.272 225.338 225.336C221.275 229.4 211.536 223.53 205.645 227.975C199.206 232.579 202.976 243.439 198 246.314C193.022 249.189 185.136 240.997 178.296 243.767C170.885 246.548 171.716 258.015 166.165 259.501C160.613 260.988 155.116 251.036 147.792 251.942C139.913 252.709 137.75 264 132.002 264C126.255 264 123.519 252.963 116.212 251.942C108.404 250.644 103.391 260.99 97.8389 259.501C92.2865 258.015 92.5028 246.644 85.7079 243.767C78.5017 240.492 70.9805 249.189 66.0043 246.314C61.0259 243.439 64.177 232.514 58.3589 227.975C52.2452 222.945 42.7318 229.4 38.666 225.336C34.6023 221.272 40.4719 211.534 36.0269 205.643C31.4234 199.203 20.5626 202.974 17.6878 197.997C14.813 193.019 23.0047 185.134 20.2349 178.294C17.4543 170.882 5.98734 171.713 4.50068 166.162C3.01402 160.61 12.9665 155.113 12.0604 147.789C11.2913 139.914 0 137.751 0 132.003C0 126.256 11.0364 123.52 12.0582 116.213C13.3564 108.405 3.00974 103.392 4.49854 97.8397C5.9852 92.2872 17.3558 92.5036 20.2327 85.7086C23.5081 78.5023 14.8109 70.9811 17.6857 66.0048C20.5605 61.0264 31.4855 64.1775 36.0247 58.3594C41.0545 52.2456 34.6002 42.7322 38.6639 38.6663C42.7276 34.6026 52.4658 40.4722 58.3568 36.0272C64.7961 31.4236 61.0259 20.5628 66.0021 17.688C70.9805 14.8132 78.8658 23.0049 85.7057 20.235C93.1176 17.4545 92.2865 5.98737 97.8368 4.50069C103.389 3.01402 108.886 12.9666 116.21 12.0605L116.212 12.0583Z" fill="#F7041F"/>
<path fill-rule="evenodd" clip-rule="evenodd" d="M119.033 120.265C120.231 120.265 121.202 121.293 121.202 122.561C121.202 128.902 126.058 134.042 132.049 134.042C138.039 134.042 142.896 128.902 142.896 122.561C142.896 121.293 143.867 120.265 145.065 120.265C146.263 120.265 147.234 121.293 147.234 122.561C147.234 131.438 140.436 138.634 132.049 138.634C123.662 138.634 116.863 131.438 116.863 122.561C116.863 121.293 117.835 120.265 119.033 120.265Z" fill="white"/>
<path d="M171.097 95.8687L172.544 99.7525C173.823 103.184 176.384 105.897 179.617 107.247L183.3 108.784L179.617 110.322C176.384 111.671 173.823 114.385 172.544 117.816L171.097 121.7L169.65 117.816C168.372 114.385 165.81 111.671 162.577 110.322L158.895 108.784L162.577 107.247C165.81 105.897 168.372 103.184 169.65 99.7525L171.097 95.8687Z" fill="white"/>
<path d="M93.0001 95.8687L94.4473 99.7525C95.7257 103.184 98.287 105.897 101.52 107.247L105.203 108.784L101.52 110.322C98.287 111.671 95.7257 114.385 94.4473 117.816L93.0001 121.7L91.5529 117.816C90.2744 114.385 87.7132 111.671 84.4799 110.322L80.7974 108.784L84.4799 107.247C87.7132 105.897 90.2744 103.184 91.5529 99.7525L93.0001 95.8687Z" fill="white"/>
</svg>
